# xmcd
#
# Track frame offsets: 
#        150
#        20909
#        74415
#        99187
#        110619
#        132611
#        151016
#        198267
#        211809
#        249349
#        255222
#        269259
#        319296
#
# Disc length: 4556 seconds
#
# Revision: 0
# Processed by: cddbd v1.5.2PL0 Copyright (c) Steve Scherf et al.
# Submitted via: ExactAudioCopy v0.99pb5
#
DISCID=b211ca0d
DTITLE=Stevie Ray Vaughan and Double Trouble - Couldn't Stand the Weat
DTITLE=her
DYEAR=2010
DGENRE=Blues
TTITLE0=Testify
TTITLE1=Voodoo Child
TTITLE2=The Things
TTITLE3=Honey Bee
TTITLE4=Couldn't Stand The Weather
TTITLE5=Cold Shot
TTITLE6=Tin Pan Alley
TTITLE7=Love Struck Baby
TTITLE8=Texas Flood 
TTITLE9=Band Intos-Encores
TTITLE10=Stang's Swang
TTITLE11=Lenny
TTITLE12=Pride And Joy
EXTD=
EXTT0=
EXTT1=
EXTT2=
EXTT3=
EXTT4=
EXTT5=
EXTT6=
EXTT7=
EXTT8=
EXTT9=
EXTT10=
EXTT11=
EXTT12=
PLAYORDER=
